<?xml version="1.0" encoding="iso-8859-1"?>
<!-- Uploaded to: SVG Repo, www.svgrepo.com, Generator: SVG Repo Mixer Tools -->
<!DOCTYPE svg PUBLIC "-//W3C//DTD SVG 1.1//EN" "http://www.w3.org/Graphics/SVG/1.1/DTD/svg11.dtd">
<svg fill="#000000" height="800px" width="800px" version="1.1" id="Capa_1" xmlns="http://www.w3.org/2000/svg" xmlns:xlink="http://www.w3.org/1999/xlink" 
	 viewBox="0 0 510.978 510.978" xml:space="preserve">
<g>
	<path d="M435.639,167.402l-40.728-40.728l40.728-40.728c8.278,6.003,18.068,9.01,27.862,9.01c12.164,0,24.327-4.63,33.587-13.89
		c18.521-18.52,18.521-48.655,0-67.175c-18.521-18.521-48.654-18.521-67.175,0c-16.716,16.715-18.339,42.89-4.881,61.449
		l-40.728,40.728l-40.728-40.728c13.458-18.559,11.834-44.733-4.88-61.449c-18.521-18.521-48.655-18.52-67.175,0
		s-18.521,48.655,0,67.175c8.884,8.885,20.442,13.494,32.107,13.855L126.648,271.9c-21.639,21.64-21.639,56.85,0,78.489l0.354,0.354
		l-45.609,45.609c-7.307,7.306-8.767,18.26-4.42,27.048L2.197,498.175c-2.929,2.929-2.929,7.678,0,10.606
		c1.464,1.464,3.384,2.197,5.303,2.197s3.839-0.732,5.303-2.197l74.775-74.775c3.278,1.621,6.851,2.452,10.431,2.452
		c6.018,0,12.036-2.291,16.617-6.872l45.609-45.609l0.354,0.354c10.819,10.82,25.032,16.229,39.244,16.229
		s28.425-5.41,39.245-16.229l176.98-176.98c0.361,11.666,4.971,23.223,13.855,32.107c9.26,9.26,21.424,13.89,33.587,13.89
		s24.327-4.63,33.587-13.89c18.521-18.52,18.521-48.655,0-67.175C480.372,155.567,454.198,153.944,435.639,167.402z M440.519,24.497
		c6.336-6.336,14.658-9.504,22.981-9.504s16.645,3.168,22.981,9.504c12.672,12.672,12.672,33.29,0,45.962s-33.29,12.672-45.962,0
		S427.847,37.169,440.519,24.497z M424.609,177.585L290.343,311.852l-40.305-40.305L384.304,137.28L424.609,177.585z
		 M239.431,260.94l-40.305-40.305L333.393,86.368l40.305,40.305L239.431,260.94z M282.127,70.459
		c-12.672-12.672-12.672-33.29,0-45.962c6.337-6.336,14.658-9.504,22.981-9.504c8.321,0,16.646,3.169,22.981,9.504
		c12.671,12.672,12.671,33.29,0,45.962S294.799,83.132,282.127,70.459z M104.02,418.979c-3.314,3.314-8.707,3.313-12.021,0
		c-3.314-3.314-3.314-8.707,0-12.021l45.609-45.609l12.021,12.021L104.02,418.979z M228.471,373.724
		c-15.791,15.79-41.485,15.791-57.276,0l-33.941-33.941c-15.791-15.791-15.791-41.485,0-57.276l51.265-51.265l91.217,91.217
		L228.471,373.724z M486.481,228.851c-12.672,12.672-33.29,12.672-45.962,0s-12.672-33.291,0-45.962
		c6.336-6.336,14.657-9.503,22.981-9.503c8.322,0,16.646,3.168,22.981,9.503C499.153,195.56,499.153,216.179,486.481,228.851z"/>
	<path d="M250.391,317.155c-2.929-2.929-7.678-2.929-10.606,0l-33.941,33.941c-2.929,2.929-2.929,7.678,0,10.606
		c1.464,1.464,3.384,2.197,5.303,2.197s3.839-0.732,5.303-2.197l33.941-33.941C253.32,324.833,253.32,320.084,250.391,317.155z"/>
</g>
</svg>